<svg width="46" height="45" viewBox="0 0 46 45" fill="none" xmlns="http://www.w3.org/2000/svg">
<circle cx="22.9449" cy="22.5" r="22.5" fill="#58BEBF" fill-opacity="0.2"/>
<path fill-rule="evenodd" clip-rule="evenodd" d="M20.0473 32.7964V28.5415H26.3199V32.7964H31.047V9.87805H15.3194V32.7964H20.0473ZM26.3199 11.9835H28.9655V14.6584H26.3199V11.9835ZM28.9655 15.8722H26.3199V18.5479H28.9655V15.8722ZM26.3199 19.7616H28.9655V22.4359H26.3199V19.7616ZM28.9655 23.6496H26.3199V26.3261H28.9655V23.6496ZM21.8611 11.9835H24.5074V14.6584H21.8611V11.9835ZM24.5074 15.8722H21.8611V18.5479H24.5074V15.8722ZM21.8611 19.7616H24.5074V22.4359H21.8611V19.7616ZM24.5074 23.6496H21.8611V26.3261H24.5074V23.6496ZM17.4024 11.9835H20.048V14.6584H17.4024V11.9835ZM20.048 15.8722H17.4024V18.5479H20.048V15.8722ZM17.4024 19.7616H20.048V22.4359H17.4024V19.7616ZM20.048 23.6496H17.4024V26.3261H20.048V23.6496Z" fill="#58BEBF"/>
</svg>
